<svg width="34" height="34" viewBox="0 0 34 34" fill="none" xmlns="http://www.w3.org/2000/svg">
<rect width="34" height="34" rx="17" fill="white"/>
<g clip-path="url(#clip0_17_1615)">
<path d="M20.7188 10H13.2812C11.4691 10 10 11.4691 10 13.2812V20.7188C10 22.5309 11.4691 24 13.2812 24H20.7188C22.5309 24 24 22.5309 24 20.7188V13.2812C24 11.4691 22.5309 10 20.7188 10Z" fill="url(#paint0_radial_17_1615)"/>
<path d="M20.7188 10H13.2812C11.4691 10 10 11.4691 10 13.2812V20.7188C10 22.5309 11.4691 24 13.2812 24H20.7188C22.5309 24 24 22.5309 24 20.7188V13.2812C24 11.4691 22.5309 10 20.7188 10Z" fill="url(#paint1_radial_17_1615)"/>
<path d="M17.0005 11.5312C15.5153 11.5312 15.3289 11.5378 14.7456 11.5643C14.1634 11.591 13.7659 11.6831 13.4182 11.8184C13.0585 11.958 12.7534 12.1449 12.4495 12.449C12.1452 12.753 11.9584 13.0581 11.8183 13.4176C11.6826 13.7655 11.5904 14.163 11.5642 14.745C11.5381 15.3283 11.5312 15.5148 11.5312 17.0001C11.5312 18.4853 11.5378 18.6711 11.5643 19.2544C11.5911 19.8366 11.6832 20.2341 11.8184 20.5818C11.9581 20.9415 12.145 21.2466 12.4491 21.5505C12.753 21.8548 13.0581 22.0421 13.4175 22.1818C13.7655 22.317 14.163 22.4091 14.7451 22.4358C15.3284 22.4624 15.5147 22.4689 16.9998 22.4689C18.4852 22.4689 18.671 22.4624 19.2543 22.4358C19.8365 22.4091 20.2344 22.317 20.5824 22.1818C20.9419 22.0421 21.2466 21.8548 21.5504 21.5505C21.8547 21.2466 22.0415 20.9415 22.1816 20.5819C22.3161 20.2341 22.4084 19.8365 22.4357 19.2545C22.4619 18.6712 22.4688 18.4853 22.4688 17.0001C22.4688 15.5148 22.4619 15.3284 22.4357 14.7451C22.4084 14.1629 22.3161 13.7655 22.1816 13.4178C22.0415 13.0581 21.8547 12.753 21.5504 12.449C21.2463 12.1448 20.942 11.9579 20.582 11.8184C20.2334 11.6831 19.8358 11.5909 19.2536 11.5643C18.6702 11.5378 18.4845 11.5312 16.9988 11.5312H17.0005ZM16.5099 12.5168C16.6555 12.5166 16.818 12.5168 17.0005 12.5168C18.4607 12.5168 18.6337 12.522 19.2104 12.5482C19.7436 12.5726 20.033 12.6617 20.2257 12.7366C20.481 12.8357 20.6629 12.9542 20.8542 13.1456C21.0456 13.337 21.1641 13.5193 21.2634 13.7745C21.3383 13.967 21.4275 14.2564 21.4518 14.7896C21.478 15.3662 21.4837 15.5393 21.4837 16.9988C21.4837 18.4583 21.478 18.6315 21.4518 19.208C21.4274 19.7412 21.3383 20.0306 21.2634 20.2231C21.1643 20.4783 21.0456 20.6601 20.8542 20.8514C20.6628 21.0428 20.4811 21.1612 20.2257 21.2604C20.0332 21.3356 19.7436 21.4244 19.2104 21.4488C18.6338 21.475 18.4607 21.4807 17.0005 21.4807C15.5402 21.4807 15.3671 21.475 14.7907 21.4488C14.2575 21.4242 13.9681 21.3351 13.7751 21.2603C13.52 21.1611 13.3376 21.0427 13.1462 20.8513C12.9548 20.6599 12.8364 20.478 12.737 20.2227C12.6621 20.0301 12.5729 19.7407 12.5487 19.2075C12.5225 18.631 12.5172 18.4579 12.5172 16.9974C12.5172 15.537 12.5225 15.3648 12.5487 14.7883C12.573 14.2551 12.6621 13.9657 12.737 13.7729C12.8361 13.5177 12.9548 13.3354 13.1463 13.144C13.3377 12.9526 13.52 12.8341 13.7752 12.7348C13.968 12.6596 14.2575 12.5707 14.7907 12.5462C15.2952 12.5234 15.4907 12.5166 16.5099 12.5154V12.5168ZM19.9197 13.4248C19.5574 13.4248 19.2635 13.7185 19.2635 14.0808C19.2635 14.4431 19.5574 14.7371 19.9197 14.7371C20.282 14.7371 20.576 14.4431 20.576 14.0808C20.576 13.7185 20.282 13.4246 19.9197 13.4246V13.4248ZM17.0005 14.1916C15.4496 14.1916 14.1921 15.4491 14.1921 17.0001C14.1921 18.551 15.4496 19.8079 17.0005 19.8079C18.5515 19.8079 19.8085 18.551 19.8085 17.0001C19.8085 15.4491 18.5514 14.1916 17.0004 14.1916H17.0005ZM17.0005 15.1771C18.0072 15.1771 18.8234 15.9932 18.8234 17.0001C18.8234 18.0068 18.0072 18.823 17.0005 18.823C15.9938 18.823 15.1776 18.0068 15.1776 17.0001C15.1776 15.9932 15.9937 15.1771 17.0005 15.1771Z" fill="white"/>
</g>
<defs>
<radialGradient id="paint0_radial_17_1615" cx="0" cy="0" r="1" gradientUnits="userSpaceOnUse" gradientTransform="translate(13.7187 25.0783) rotate(-90) scale(13.875 12.9049)">
<stop stop-color="#FFDD55"/>
<stop offset="0.1" stop-color="#FFDD55"/>
<stop offset="0.5" stop-color="#FF543E"/>
<stop offset="1" stop-color="#C837AB"/>
</radialGradient>
<radialGradient id="paint1_radial_17_1615" cx="0" cy="0" r="1" gradientUnits="userSpaceOnUse" gradientTransform="translate(7.65495 11.0085) rotate(78.681) scale(6.20222 25.5657)">
<stop stop-color="#3771C8"/>
<stop offset="0.128" stop-color="#3771C8"/>
<stop offset="1" stop-color="#6600FF" stop-opacity="0"/>
</radialGradient>
<clipPath id="clip0_17_1615">
<rect width="14" height="14" fill="white" transform="translate(10 10)"/>
</clipPath>
</defs>
</svg>
