<svg width="87" height="77" viewBox="0 0 87 77" fill="none" xmlns="http://www.w3.org/2000/svg">
<path d="M46.6663 63.1665C46.6663 61.7498 46.833 60.3748 47.0413 58.9998H9.16634V17.3332L42.4997 38.1665L75.833 17.3332V38.5415C78.833 39.0415 81.6247 40.0832 84.1663 41.5415V8.99984C84.1663 4.4165 80.4163 0.666504 75.833 0.666504H9.16634C4.58301 0.666504 0.833008 4.4165 0.833008 8.99984V58.9998C0.833008 63.5832 4.58301 67.3332 9.16634 67.3332H47.0413C46.833 65.9582 46.6663 64.5832 46.6663 63.1665ZM75.833 8.99984L42.4997 29.8332L9.16634 8.99984H75.833ZM66.458 76.3332L54.9997 63.8332L59.833 58.9998L66.458 65.6248L81.4163 50.6665L86.2497 56.5415L66.458 76.3332Z" fill="#3B82F6"/>
</svg>
