<svg width="57" height="56" viewBox="0 0 57 56" fill="none" xmlns="http://www.w3.org/2000/svg">
<rect x="0.5" width="56" height="56" rx="28" fill="#FBFCFF"/>
<path fill-rule="evenodd" clip-rule="evenodd" d="M27.9994 19.9997C25.3504 19.9997 23.2384 22.3797 23.5264 24.9997C23.553 25.2423 23.491 25.4864 23.3516 25.6868C23.2123 25.8872 23.0051 26.0303 22.7684 26.0897C22.0613 26.2709 21.4445 26.7035 21.0333 27.3066C20.6221 27.9097 20.4447 28.6419 20.5343 29.3663C20.6239 30.0907 20.9743 30.7576 21.5201 31.2423C22.0658 31.727 22.7695 31.9963 23.4994 31.9997H24.4994C24.7646 31.9997 25.0189 32.1051 25.2065 32.2926C25.394 32.4802 25.4994 32.7345 25.4994 32.9997C25.4994 33.2649 25.394 33.5193 25.2065 33.7068C25.0189 33.8944 24.7646 33.9997 24.4994 33.9997H23.4994C22.3501 34.0005 21.2356 33.6053 20.3436 32.8806C19.4515 32.156 18.8363 31.1462 18.6015 30.0211C18.3668 28.8961 18.5267 27.7245 19.0545 26.7036C19.5823 25.6826 20.4457 24.8747 21.4994 24.4157C21.5174 22.8997 22.0649 21.4376 23.0471 20.2826C24.0292 19.1275 25.3843 18.3521 26.8777 18.0906C28.3712 17.8291 29.9091 18.0979 31.2253 18.8504C32.5415 19.603 33.5532 20.792 34.0854 22.2117C35.4847 22.5976 36.6967 23.4776 37.497 24.6885C38.2973 25.8995 38.6317 27.3595 38.4381 28.7981C38.2446 30.2366 37.5362 31.5563 36.4443 32.5127C35.3524 33.4691 33.9509 33.9974 32.4994 33.9997C32.2342 33.9997 31.9798 33.8944 31.7923 33.7068C31.6047 33.5193 31.4994 33.2649 31.4994 32.9997C31.4994 32.7345 31.6047 32.4802 31.7923 32.2926C31.9798 32.1051 32.2342 31.9997 32.4994 31.9997C33.5044 32.0012 34.4732 31.6244 35.213 30.9441C35.9527 30.2638 36.4093 29.3299 36.4919 28.3283C36.5744 27.3267 36.2769 26.3307 35.6585 25.5384C35.0401 24.7462 34.1461 24.2158 33.1544 24.0527C32.9634 24.0212 32.7855 23.9354 32.6419 23.8056C32.4983 23.6758 32.3951 23.5075 32.3444 23.3207C32.0854 22.3668 31.5196 21.5247 30.7342 20.9245C29.9489 20.3242 28.9878 19.9993 27.9994 19.9997ZM29.4994 28.4157L30.7924 29.7077C30.8853 29.8006 30.9957 29.8742 31.1171 29.9244C31.2386 29.9746 31.3687 30.0004 31.5001 30.0003C31.6315 30.0002 31.7616 29.9742 31.8829 29.9239C32.0043 29.8735 32.1145 29.7997 32.2074 29.7067C32.3002 29.6138 32.3738 29.5034 32.424 29.382C32.4742 29.2605 32.5 29.1304 32.4999 28.999C32.4998 28.8676 32.4739 28.7375 32.4235 28.6162C32.3731 28.4948 32.2993 28.3846 32.2064 28.2917L29.3824 25.4727C29.148 25.2389 28.8305 25.1075 28.4994 25.1075C28.1683 25.1075 27.8507 25.2389 27.6164 25.4727L24.7924 28.2927C24.6047 28.4802 24.4993 28.7346 24.4992 28.9999C24.4991 29.2651 24.6044 29.5196 24.7919 29.7072C24.9794 29.8949 25.2337 30.0003 25.499 30.0004C25.7643 30.0005 26.0187 29.8952 26.2064 29.7077L27.4994 28.4157V36.9997C27.4994 37.2649 27.6047 37.5193 27.7923 37.7068C27.9798 37.8944 28.2342 37.9997 28.4994 37.9997C28.7646 37.9997 29.0189 37.8944 29.2065 37.7068C29.394 37.5193 29.4994 37.2649 29.4994 36.9997V28.4157Z" fill="#3B82F6"/>
</svg>
