<svg width="34" height="34" viewBox="0 0 34 34" fill="none" xmlns="http://www.w3.org/2000/svg">
<rect width="34" height="34" rx="17" fill="white"/>
<g clip-path="url(#clip0_17_1616)">
<path d="M23.6908 12.1836C23.6105 11.7616 23.4539 11.3768 23.2365 11.0676C23.0191 10.7584 22.7486 10.5356 22.4518 10.4214C21.3654 10 16.9929 10 16.9929 10C16.9929 10 12.6202 10.0128 11.5338 10.4342C11.237 10.5484 10.9665 10.7712 10.7491 11.0804C10.5317 11.3896 10.3751 11.7744 10.2948 12.1964C9.96616 14.9418 9.83868 19.1252 10.3038 21.7608C10.3841 22.1828 10.5407 22.5676 10.7581 22.8768C10.9755 23.186 11.246 23.4088 11.5428 23.523C12.6292 23.9444 17.0018 23.9444 17.0018 23.9444C17.0018 23.9444 21.3744 23.9444 22.4607 23.523C22.7575 23.4088 23.028 23.186 23.2454 22.8768C23.4628 22.5676 23.6195 22.1828 23.6998 21.7608C24.0464 19.0115 24.1532 14.8307 23.6908 12.1836Z" fill="#FF0000"/>
<path d="M15.6016 19.9605L19.2289 16.9724L15.6016 13.9844V19.9605Z" fill="white"/>
</g>
<defs>
<clipPath id="clip0_17_1616">
<rect width="14" height="14" fill="white" transform="translate(10 10)"/>
</clipPath>
</defs>
</svg>
